<svg width="79" height="75" viewBox="0 0 79 75" fill="none" xmlns="http://www.w3.org/2000/svg">
<path d="M54.4496 52.1C57.3496 51.8 59.5496 49.3 59.4496 46.3C59.3496 43.3 56.8496 40.9 53.8496 40.9H53.6496C50.5496 41 48.1496 43.6 48.2496 46.7C48.3496 48.2 48.9496 49.5 49.8496 50.4C46.4496 57.1 41.2496 62 33.4496 66.1C28.1496 68.9 22.6496 69.9 17.1496 69.2C12.6496 68.6 9.14962 66.6 6.94962 63.3C3.74962 58.4 3.44962 53.1 6.14962 47.8C8.04962 44 11.0496 41.2 12.9496 39.8C12.5496 38.5 11.9496 36.3 11.6496 34.7C-2.85038 45.2 -1.35038 59.4 3.04962 66.1C6.34962 71.1 13.0496 74.2 20.4496 74.2C22.4496 74.2 24.4496 74 26.4496 73.5C39.2496 71 48.9496 63.4 54.4496 52.1V52.1Z" fill="#764ABC"/>
<path d="M72.0496 39.7C64.4496 30.8 53.2496 25.9 40.4496 25.9H38.8496C37.9496 24.1 36.0496 22.9 33.9496 22.9H33.7496C30.6496 23 28.2496 25.6 28.3496 28.7C28.4496 31.7 30.9496 34.1 33.9496 34.1H34.1496C36.3496 34 38.2496 32.6 39.0496 30.7H40.8496C48.4496 30.7 55.6496 32.9 62.1496 37.2C67.1496 40.5 70.7496 44.8 72.7496 50C74.4496 54.2 74.3496 58.3 72.5496 61.8C69.7496 67.1 65.0496 70 58.8496 70C54.8496 70 51.0496 68.8 49.0496 67.9C47.9496 68.9 45.9496 70.5 44.5496 71.5C48.8496 73.5 53.2496 74.6 57.4496 74.6C67.0496 74.6 74.1496 69.3 76.8496 64C79.7496 58.2 79.5496 48.2 72.0496 39.7Z" fill="#764ABC"/>
<path d="M21.2496 53.8C21.3496 56.8 23.8496 59.2 26.8496 59.2H27.0496C30.1496 59.1 32.5496 56.5 32.4496 53.4C32.3496 50.4 29.8496 48 26.8496 48H26.6496C26.4496 48 26.1496 48 25.9496 48.1C21.8496 41.3 20.1496 33.9 20.7496 25.9C21.1496 19.9 23.1496 14.7 26.6496 10.4C29.5496 6.7 35.1496 4.9 38.9496 4.8C49.5496 4.6 54.0496 17.8 54.3496 23.1C55.6496 23.4 57.8496 24.1 59.3496 24.6C58.1496 8.4 48.1496 0 38.5496 0C29.5496 0 21.2496 6.5 17.9496 16.1C13.3496 28.9 16.3496 41.2 21.9496 50.9C21.4496 51.6 21.1496 52.7 21.2496 53.8V53.8Z" fill="#764ABC"/>
</svg>
